<svg id="Layer_1" data-name="Layer 1" xmlns="http://www.w3.org/2000/svg" viewBox="0 0 413.47 598.39"><defs><style>.cls-1{fill:#ffffff;}</style></defs><path class="cls-1" d="M231.87,514.6l1.25,2c.32.63.68,1.26,1,1.88l1.72,3.47c1,2.19,1.85,4.18,2.5,6a51.74,51.74,0,0,1,2.66,9.49,58.53,58.53,0,0,0,2.32,8,38,38,0,0,0,4.08,8.07,33.6,33.6,0,0,0,17.12,13.13,34.75,34.75,0,0,0,5.6,1.4,44.18,44.18,0,0,0,5.76.51,78.65,78.65,0,0,0,34.3-6.85,56.71,56.71,0,0,0,18.55-13.08,42.07,42.07,0,0,0,6.34-8.95,39.39,39.39,0,0,0,3.6-10.17,38.93,38.93,0,0,0,.74-10.7,44.64,44.64,0,0,0-.72-5.37,52.7,52.7,0,0,0-1.36-5.33,67.46,67.46,0,0,0-10.54-19.91,97.05,97.05,0,0,0-16.06-16.68A115.31,115.31,0,0,0,270,449.87c-14.68-4.31-30.05-5.33-44.27-2.29a85.3,85.3,0,0,0-38.46,19.81,107.74,107.74,0,0,0-26.23,35.39,100.25,100.25,0,0,0-7,20.63,74.16,74.16,0,0,0-1.66,20.73,84.37,84.37,0,0,0,4.09,20.59,108.5,108.5,0,0,0,9,19.83,150.46,150.46,0,0,0,28.61,35,182.19,182.19,0,0,0,81.58,43A153.11,153.11,0,0,0,321.48,666a133.11,133.11,0,0,0,43.86-11.33,151.44,151.44,0,0,0,37.8-24.56,188.05,188.05,0,0,0,29.66-33.28,193,193,0,0,0,20.87-38A147.29,147.29,0,0,0,460.18,539a109.84,109.84,0,0,0,3.14-20,122.54,122.54,0,0,0-4.8-41.31,178,178,0,0,0-17.67-40.56,225.39,225.39,0,0,0-12.56-19.23q-6.78-9.4-14.5-18.3a317.92,317.92,0,0,0-33.69-33.47,334.91,334.91,0,0,0-38.71-28.68,316.59,316.59,0,0,0-42.81-22.9,253.91,253.91,0,0,0-46.24-15.29c-15.88-3.47-32.23-5.27-48.52-4.21a118.86,118.86,0,0,0-12.17,1.35c-4,.94-7.92,2.14-11.83,3.4a221.15,221.15,0,0,0-22.94,9,206.58,206.58,0,0,0-21.67,11.4c-3.46,2.1-6.82,4.33-10,6.68a65,65,0,0,0-8.61,7.48,21.42,21.42,0,0,0-2.92,3.8,6.43,6.43,0,0,0-.61,1.43c-.08.33,0,.4,0,.16a1.39,1.39,0,0,0,0-.41c0-.11,0-.16,0-.15s.26.32.65.69a16.18,16.18,0,0,0,3.65,2.43,58.7,58.7,0,0,0,10.56,4,87.49,87.49,0,0,0,11.75,2.48,80.14,80.14,0,0,0,12.08.74,99.8,99.8,0,0,0,12-1.05,94,94,0,0,0,23-6.52c14.75-6.33,27.9-16.21,40.39-27,6.27-5.38,12.41-11,18.58-16.65s12.4-11.32,18.75-16.89a414.38,414.38,0,0,1,40.14-31.46q10.61-7.2,21.74-13.63t22.78-11.92l5.83-2.71,5.88-2.6a28.52,28.52,0,0,1,3-1.2l3.11-.91c2.08-.61,4.17-1.18,6.27-1.73A152.64,152.64,0,0,1,399,210.66a83.84,83.84,0,0,1,26.33,1.69,62.13,62.13,0,0,1,6.31,1.93,58.79,58.79,0,0,1,6,2.68,54.6,54.6,0,0,1,10.67,7.37,61.41,61.41,0,0,1,8.74,9.42,43.72,43.72,0,0,1,6.29,11.37,25.22,25.22,0,0,1,1.17,13.51,34.34,34.34,0,0,1-5.74,12.68,65.43,65.43,0,0,1-9.17,10.34,90.19,90.19,0,0,1-10.83,8.57,84.67,84.67,0,0,1-25.07,11.63,76.84,76.84,0,0,1-13.83,2.44c-2.35.2-4.73.28-7.13.26s-4.72-.18-7-.31a111.53,111.53,0,0,1-52.25-17.38,168.16,168.16,0,0,1-21.19-16.15c-13-11.53-24.2-23.86-36.42-34.61a155.84,155.84,0,0,0-19.24-14.66,104.57,104.57,0,0,0-45.43-15.91,95.62,95.62,0,0,0-24.48.45,101.11,101.11,0,0,0-12.14,2.44,81,81,0,0,0-11.71,4,55,55,0,0,0-10.72,6.11,26.32,26.32,0,0,0-8,8.84,10.5,10.5,0,0,0-1.17,5.28,12.22,12.22,0,0,0,1.58,5.18,23.43,23.43,0,0,0,8.09,8.11,42.32,42.32,0,0,0,10.74,4.71,87,87,0,0,0,11.11,2.38c3.61.57,7.09,1,10.41,1.38,1.67.18,3.29.34,4.9.48s3.18.26,4.77.25a53,53,0,0,0,19.3-3.79,104.9,104.9,0,0,0,19.82-10.47,204.49,204.49,0,0,0,19.42-14.61c6.36-5.3,12.52-11,18.54-16.83s11.88-11.88,17.77-17.89c2.95-3,5.91-6,8.93-9s5.83-6.1,8.68-9.35,5.66-6.66,8.82-10c1.59-1.66,3.27-3.27,5.08-4.82a45,45,0,0,1,5.85-4.33,36.32,36.32,0,0,1,29.93-4A40.39,40.39,0,0,1,370.05,157,46.37,46.37,0,0,1,375.4,162a57.33,57.33,0,0,1,4.56,5.48,63,63,0,0,1,6.86,12,38.65,38.65,0,0,1,2.16,6.38,20.34,20.34,0,0,1,.59,6.64,15.77,15.77,0,0,1-2,6.29,30.51,30.51,0,0,1-3.76,5.31,66.88,66.88,0,0,1-9.65,9c-7,5.44-15.38,10-24.73,11.57a42.88,42.88,0,0,1-7.1.61c-1.2,0-2.41,0-3.62-.15-.6-.05-1.21-.12-1.81-.19l-1.73-.27a67.56,67.56,0,0,1-6.87-1.43,59.9,59.9,0,0,1-6.7-2.12,80.31,80.31,0,0,1-23.46-14,181.37,181.37,0,0,1-18.35-18.32c-5.63-6.28-11-12.57-16.71-18.45a129.17,129.17,0,0,0-18.42-16,87.71,87.71,0,0,0-21.74-11.12,84.43,84.43,0,0,0-11.9-3.15,72.25,72.25,0,0,0-12.3-1.15,60.37,60.37,0,0,0-12.31,1.09A35,35,0,0,0,175,144a12.11,12.11,0,0,0-4,3.72,4.32,4.32,0,0,0-.61,2.26,6.57,6.57,0,0,0,.54,2.37,22.45,22.45,0,0,0,2.83,4.48c1.07,1.44,2.1,2.93,3.17,4.45a54.52,54.52,0,0,0,7.69,8.36,50.85,50.85,0,0,0,9.39,6.73,33.11,33.11,0,0,0,10.89,3.81,28.87,28.87,0,0,0,11.61-.65c7.66-2.06,14.64-6.55,21-11.69a202.32,202.32,0,0,0,17.94-17.13c5.75-6,11.38-12.27,17.51-18.16a102.85,102.85,0,0,1,9.75-8.42,47.65,47.65,0,0,1,11.58-6.6A26.24,26.24,0,0,1,308.27,116,29.28,29.28,0,0,1,321,121.84a33.9,33.9,0,0,1,9.08,10.54,18.5,18.5,0,0,1,2.27,7.39,9.9,9.9,0,0,1-.81,4.75,10.1,10.1,0,0,1-3,3.74,19.87,19.87,0,0,1-6.95,3.24,38.5,38.5,0,0,1-6.82,1.17,60.5,60.5,0,0,1-13.33-.41,63.32,63.32,0,0,1-12.93-3.19,52.55,52.55,0,0,1-11.86-6.27,57,57,0,0,1-17.48-19.71,38.6,38.6,0,0,1-4.19-12.67A21.17,21.17,0,0,1,257,97.16l2.39,1.09a19.81,19.81,0,0,0-.11,11.34,38.59,38.59,0,0,0,4.81,10.64,57.15,57.15,0,0,0,16.51,16.67A49.26,49.26,0,0,0,291,142.14a55.63,55.63,0,0,0,11.4,2.76,54.16,54.16,0,0,0,11.71.41,33.72,33.72,0,0,0,5.54-.87,13,13,0,0,0,4.41-1.89,3.24,3.24,0,0,0,.95-1,2.88,2.88,0,0,0,.2-1.37,11.69,11.69,0,0,0-1.4-4.51,27.06,27.06,0,0,0-7-8.5,23.1,23.1,0,0,0-9.73-4.83,20.07,20.07,0,0,0-10.72.86,41.76,41.76,0,0,0-10.31,5.49,100.67,100.67,0,0,0-9.48,7.7c-6.08,5.55-11.85,11.59-17.75,17.55a217.39,217.39,0,0,1-18.55,17.28c-6.64,5.31-14,10.13-22.56,12.56a42.05,42.05,0,0,1-13.25,1.61,43.24,43.24,0,0,1-13.24-2.69,47.21,47.21,0,0,1-21.63-16,20.66,20.66,0,0,1-3.33-6.26,20.14,20.14,0,0,1-.84-7.47,15.35,15.35,0,0,1,.76-3.86,11.31,11.31,0,0,1,1.87-3.46,15.62,15.62,0,0,1,5.56-4.25A45.14,45.14,0,0,1,186,137.79a97.93,97.93,0,0,1,12.66-1.13,95,95,0,0,1,12.72.52A97.49,97.49,0,0,1,224,139.54a104.67,104.67,0,0,1,12.21,4A106.9,106.9,0,0,1,247.86,149a141.72,141.72,0,0,1,21.34,14.48c6.69,5.37,13,11.08,19.16,16.65s12.29,11,18.63,15.58a95.44,95.44,0,0,0,9.71,6.24,68.51,68.51,0,0,0,10.18,4.59,59.32,59.32,0,0,0,10.69,2.68l1.37.21c.44.05.87.12,1.31.16.87.11,1.75.2,2.64.28,1.78.16,3.59.28,5.44.35a101.69,101.69,0,0,0,11.42-.11,54.12,54.12,0,0,0,11.79-2,30.09,30.09,0,0,0,10.71-5.55,18.59,18.59,0,0,0,3.94-4.55,11.18,11.18,0,0,0,1.65-5.6,13.08,13.08,0,0,0-1.41-5.66,19.6,19.6,0,0,0-3.43-4.82,31.71,31.71,0,0,0-9.72-6.72,55.85,55.85,0,0,0-10.81-3.67,91,91,0,0,0-10.17-1.86,73.67,73.67,0,0,0-9.32-.54,79.86,79.86,0,0,0-10,.66,60.38,60.38,0,0,0-11.25,2.5,51.27,51.27,0,0,0-11.21,5.08,53.6,53.6,0,0,0-9.72,7.71c-2.91,3-5.69,6-8.38,9.23-10.81,12.7-19.94,26.75-30,40.65a201.48,201.48,0,0,1-16.59,20.32A92.28,92.28,0,0,1,224,272.53a66.11,66.11,0,0,1-13.79,5.74,59.6,59.6,0,0,1-23,2,45.38,45.38,0,0,1-7.49-1.51,48.21,48.21,0,0,1-13.45-6.26,61.62,61.62,0,0,1-11-9.46A85.83,85.83,0,0,1,146.61,252a52.3,52.3,0,0,1-6.24-12.32,18.66,18.66,0,0,1-1-7,14.36,14.36,0,0,1,2.29-6.64c2.45-3.85,5.86-6.61,9.34-9.06a80.68,80.68,0,0,1,11.09-6.24,115.42,115.42,0,0,1,24-8.17,101.58,101.58,0,0,1,25.49-2.41c4.27.16,8.56.41,12.83,1a127.15,127.15,0,0,1,12.74,2.33,125.47,125.47,0,0,1,24.58,8.7,170.24,170.24,0,0,1,22.57,13c14.34,9.65,27.33,20.57,40.48,29.91a178.85,178.85,0,0,0,19.95,12.52,109,109,0,0,0,20.81,8.5,103.91,103.91,0,0,0,21.9,3.77c1.88.09,3.77.21,5.51.21s3.59,0,5.41-.09c3.64-.13,7.33-.38,11.06-.72a159.51,159.51,0,0,0,22.66-3.5c7.5-1.87,15-4.69,20.9-9.59a22.11,22.11,0,0,0,6.71-8.87,19.11,19.11,0,0,0,.54-11.24,30.42,30.42,0,0,0-5.16-10.82,41.58,41.58,0,0,0-8.59-8.63,43,43,0,0,0-22.12-8.71c-7.93-.77-15.92.5-23.59,2.75a153.26,153.26,0,0,0-22.48,8.88q-2.76,1.29-5.49,2.65l-2.73,1.38a29,29,0,0,1-2.83,1.16L361.59,237,356,239.35a334.24,334.24,0,0,0-43.41,22.7,405.32,405.32,0,0,0-40.13,28.73c-12.93,10.36-25.45,21.43-38.62,32.09-6.59,5.32-13.42,10.45-20.62,15.18a132,132,0,0,1-22.93,12.19A102.91,102.91,0,0,1,165,357a123.66,123.66,0,0,1-13,1c-4.34.12-8.66.13-13,.05s-8.7-.24-13.13-.7a62.34,62.34,0,0,1-13.58-2.74A27.8,27.8,0,0,1,105,351a14.43,14.43,0,0,1-3.71-3.79,13.66,13.66,0,0,1-1.47-2.91,12.71,12.71,0,0,1-.73-3.46,14.2,14.2,0,0,1,1-6,20.49,20.49,0,0,1,2.21-4.16,34.68,34.68,0,0,1,5.15-5.78,75.71,75.71,0,0,1,11-8.18c3.74-2.36,7.54-4.47,11.39-6.43a216,216,0,0,1,23.61-10.22,229,229,0,0,1,24.45-7.47c4.14-1,8.32-1.87,12.53-2.63,4.14-1,8.35-2,12.59-2.67a192.62,192.62,0,0,1,51.5-1.12,280.71,280.71,0,0,1,50.7,10.21,353.51,353.51,0,0,1,94.2,44.06A323.41,323.41,0,0,1,441,373.17q9.79,9.12,18.79,19.24a256.66,256.66,0,0,1,17,21.35,205.44,205.44,0,0,1,26.07,49.48,161.94,161.94,0,0,1,9.67,57.51,149.75,149.75,0,0,1-3.54,29.62,157.41,157.41,0,0,1-9.06,27.82A181.07,181.07,0,0,1,469.37,626,202.86,202.86,0,0,1,427,662.31,211.55,211.55,0,0,1,377.1,685.9,198.84,198.84,0,0,1,269.32,690,229.73,229.73,0,0,1,219,671.62a216.63,216.63,0,0,1-44.72-29.76,169.47,169.47,0,0,1-35.39-41.81,133.17,133.17,0,0,1-6.49-12.51,120.59,120.59,0,0,1-5.16-13.31,108.59,108.59,0,0,1-5.16-28.6,99.8,99.8,0,0,1,.52-14.76,110,110,0,0,1,2.62-14.3,123.64,123.64,0,0,1,10.06-26.46A131.57,131.57,0,0,1,170.42,447a113.48,113.48,0,0,1,24.09-14.66,103.55,103.55,0,0,1,55.24-8.25,119.32,119.32,0,0,1,26.68,6.51,135.28,135.28,0,0,1,45.64,28.17,117.47,117.47,0,0,1,17.46,20.55A84.31,84.31,0,0,1,351,504.27a66.53,66.53,0,0,1,1.39,6.91,59.79,59.79,0,0,1,.58,7.1,52.64,52.64,0,0,1-1.66,14.21,53.44,53.44,0,0,1-14,24.31,63.1,63.1,0,0,1-10.73,8.64,77.31,77.31,0,0,1-12,6.3,92.63,92.63,0,0,1-25.77,6.52,88.48,88.48,0,0,1-13.33.37c-2.22-.11-4.5-.36-6.73-.63s-4.47-.57-6.72-1a114.3,114.3,0,0,1-13.64-3,54.56,54.56,0,0,1-13.78-6,38.05,38.05,0,0,1-11.68-11.3,36.77,36.77,0,0,1-5.71-15.64,25.84,25.84,0,0,1,2.49-15.53,22.81,22.81,0,0,1,4.75-6.34,19.21,19.21,0,0,1,1.6-1.34,18.25,18.25,0,0,1,1.7-1.26c.64-.39,1.26-.77,1.91-1.13S231.14,514.91,231.87,514.6Z" transform="translate(-99.04 -97.16)"/></svg>