<svg id="Layer_1" data-name="Layer 1" xmlns="http://www.w3.org/2000/svg" viewBox="0 0 2217.76 648.85"><defs><style>.cls-1,.cls-2,.cls-3{fill:#231f20;}.cls-2{font-size:446px;font-family:OpenSans-Light, Open Sans;font-weight:300;letter-spacing:-0.03em;}.cls-3{font-size:120px;font-family:OpenSans-Bold, Open Sans;font-weight:700;letter-spacing:-0.01em;}</style></defs><path class="cls-1" d="M145.93,472.9l1.25,2c.32.64.68,1.27,1,1.89l1.72,3.47c1,2.19,1.85,4.18,2.51,6a52.93,52.93,0,0,1,2.66,9.49,57.52,57.52,0,0,0,2.31,8,38.28,38.28,0,0,0,4.08,8.07,34.07,34.07,0,0,0,7.16,7.73,33.67,33.67,0,0,0,10,5.4,35.83,35.83,0,0,0,5.6,1.4,44.17,44.17,0,0,0,5.76.5,78.21,78.21,0,0,0,34.3-6.85,56.61,56.61,0,0,0,18.56-13.08,42.13,42.13,0,0,0,6.33-8.95,39.92,39.92,0,0,0,4.35-20.86,49.58,49.58,0,0,0-.72-5.38c-.37-1.79-.82-3.56-1.37-5.33a67.46,67.46,0,0,0-10.54-19.91,97,97,0,0,0-16-16.67,115.62,115.62,0,0,0-40.73-21.67c-14.68-4.3-30-5.32-44.27-2.28a85.1,85.1,0,0,0-38.46,19.81,107.74,107.74,0,0,0-26.23,35.39,100.05,100.05,0,0,0-7,20.63,75.1,75.1,0,0,0-1.66,20.73A84.29,84.29,0,0,0,70.56,523a108.89,108.89,0,0,0,9,19.84,150.67,150.67,0,0,0,28.61,35,182.12,182.12,0,0,0,81.58,43,152.78,152.78,0,0,0,45.81,3.48A132.79,132.79,0,0,0,279.4,613a151.35,151.35,0,0,0,37.8-24.56,188,188,0,0,0,29.66-33.28,193,193,0,0,0,20.87-38,147,147,0,0,0,6.51-19.85,109.57,109.57,0,0,0,3.14-20,122.54,122.54,0,0,0-4.8-41.31,177.71,177.71,0,0,0-17.67-40.55,223,223,0,0,0-12.56-19.23q-6.78-9.42-14.5-18.31a316.89,316.89,0,0,0-33.69-33.46,333.83,333.83,0,0,0-38.71-28.69,317.66,317.66,0,0,0-42.81-22.89,254.06,254.06,0,0,0-46.23-15.29c-15.89-3.48-32.24-5.28-48.53-4.21a118.86,118.86,0,0,0-12.17,1.35c-4,.94-7.92,2.13-11.83,3.39a221.15,221.15,0,0,0-22.94,9,206.65,206.65,0,0,0-21.67,11.41c-3.46,2.1-6.82,4.32-10,6.68a63.61,63.61,0,0,0-8.61,7.48,21.06,21.06,0,0,0-2.92,3.8,6.4,6.4,0,0,0-.61,1.42c-.08.33,0,.41,0,.17a1.84,1.84,0,0,0,0-.41c0-.12,0-.17,0-.15s.27.32.65.69a15.73,15.73,0,0,0,3.66,2.42,58.31,58.31,0,0,0,10.55,4A87.49,87.49,0,0,0,53.74,307a80.19,80.19,0,0,0,12.09.73,95.87,95.87,0,0,0,12-1.05,93.82,93.82,0,0,0,23-6.51c14.75-6.33,27.9-16.22,40.39-27,6.27-5.38,12.41-11,18.59-16.65s12.4-11.31,18.75-16.89a414.49,414.49,0,0,1,40.13-31.45c7.07-4.8,14.32-9.37,21.75-13.64s15-8.22,22.77-11.91l5.83-2.71,5.88-2.6a26.49,26.49,0,0,1,3-1.2l3.11-.92q3.12-.9,6.27-1.72A151.65,151.65,0,0,1,313.1,169a83.84,83.84,0,0,1,26.33,1.69,62.13,62.13,0,0,1,6.31,1.93,55.73,55.73,0,0,1,6,2.67,54.74,54.74,0,0,1,10.67,7.37,62.94,62.94,0,0,1,8.75,9.42,44.31,44.31,0,0,1,6.28,11.37,25.17,25.17,0,0,1,1.17,13.52,34.34,34.34,0,0,1-5.74,12.68A65.88,65.88,0,0,1,363.71,240a90.4,90.4,0,0,1-10.83,8.57,84.64,84.64,0,0,1-25.07,11.62A76,76,0,0,1,314,262.59q-3.54.3-7.14.25c-2.44,0-4.72-.17-7-.31a113,113,0,0,1-27.32-5.45,114.44,114.44,0,0,1-24.93-11.92A166.46,166.46,0,0,1,226.4,229c-13-11.52-24.21-23.85-36.42-34.6a155.7,155.7,0,0,0-19.25-14.66,104.41,104.41,0,0,0-45.43-15.92,95.62,95.62,0,0,0-24.48.46,100.56,100.56,0,0,0-12.13,2.44,78.38,78.38,0,0,0-11.72,4,54.8,54.8,0,0,0-10.72,6.11,26.49,26.49,0,0,0-8,8.83A10.55,10.55,0,0,0,57.1,191a12.38,12.38,0,0,0,1.59,5.18,23.15,23.15,0,0,0,8.08,8.11A41.78,41.78,0,0,0,77.51,209a85.71,85.71,0,0,0,11.11,2.39c3.62.56,7.09,1,10.41,1.37,1.67.18,3.29.35,4.9.49s3.18.26,4.77.24a53,53,0,0,0,19.3-3.78,104.39,104.39,0,0,0,19.82-10.48,203.1,203.1,0,0,0,19.42-14.6c6.36-5.3,12.52-11,18.54-16.83s11.88-11.89,17.77-17.89c3-3,5.91-6,8.93-8.95s5.84-6.1,8.68-9.35,5.66-6.67,8.82-10c1.59-1.65,3.27-3.27,5.08-4.82a45.58,45.58,0,0,1,5.85-4.32,36.34,36.34,0,0,1,29.93-4,40.56,40.56,0,0,1,13.27,6.92,47.37,47.37,0,0,1,5.35,4.93,57.33,57.33,0,0,1,4.56,5.48,62.73,62.73,0,0,1,6.86,12,38.55,38.55,0,0,1,2.16,6.37,20.4,20.4,0,0,1,.6,6.65,15.89,15.89,0,0,1-2,6.28,30.44,30.44,0,0,1-3.76,5.32,66.37,66.37,0,0,1-9.65,9c-7,5.44-15.38,10-24.73,11.57a42.88,42.88,0,0,1-7.1.61c-1.2,0-2.41,0-3.62-.16-.6,0-1.21-.12-1.81-.19l-1.73-.26a67.56,67.56,0,0,1-6.87-1.43,62.76,62.76,0,0,1-6.7-2.12,80.12,80.12,0,0,1-23.46-14.06A180.34,180.34,0,0,1,193.84,147c-5.63-6.28-11-12.57-16.71-18.45a129.18,129.18,0,0,0-18.42-16A87.82,87.82,0,0,0,137,101.36a82.26,82.26,0,0,0-11.91-3.15,73.29,73.29,0,0,0-12.3-1.16,61.15,61.15,0,0,0-12.31,1.09,35.24,35.24,0,0,0-11.36,4.11,12,12,0,0,0-4,3.73,4.31,4.31,0,0,0-.61,2.25,6.62,6.62,0,0,0,.54,2.38,23.14,23.14,0,0,0,2.83,4.47C88.93,116.53,90,118,91,119.54a55,55,0,0,0,7.69,8.36,51.35,51.35,0,0,0,9.4,6.72A32.84,32.84,0,0,0,119,138.43a28.51,28.51,0,0,0,11.61-.65c7.66-2.06,14.64-6.54,21-11.68A199.66,199.66,0,0,0,169.54,109c5.75-6,11.38-12.27,17.51-18.16a108.53,108.53,0,0,1,9.75-8.42,48,48,0,0,1,11.58-6.6,26.43,26.43,0,0,1,14-1.49,29.41,29.41,0,0,1,12.72,5.85,33.67,33.67,0,0,1,9.08,10.54,18.51,18.51,0,0,1,2.27,7.38,9.94,9.94,0,0,1-.81,4.76,10.18,10.18,0,0,1-3,3.74,20,20,0,0,1-7,3.24,38.34,38.34,0,0,1-6.82,1.17,61.12,61.12,0,0,1-13.33-.42,63,63,0,0,1-12.93-3.19,51.76,51.76,0,0,1-11.86-6.27,56.89,56.89,0,0,1-17.47-19.7A38.62,38.62,0,0,1,169,68.72a21.16,21.16,0,0,1,2.1-13.26l2.39,1.09a19.81,19.81,0,0,0-.11,11.34,38.53,38.53,0,0,0,4.81,10.63,57,57,0,0,0,16.51,16.67,48.79,48.79,0,0,0,10.37,5.24,56.4,56.4,0,0,0,11.41,2.77,54.69,54.69,0,0,0,11.7.41,32.81,32.81,0,0,0,5.55-.88,13,13,0,0,0,4.41-1.89,3.08,3.08,0,0,0,.94-1,2.88,2.88,0,0,0,.2-1.37,11.78,11.78,0,0,0-1.4-4.52,26.91,26.91,0,0,0-7-8.49,23.18,23.18,0,0,0-9.73-4.84,20.07,20.07,0,0,0-10.72.86A42.13,42.13,0,0,0,200.11,87a99.18,99.18,0,0,0-9.47,7.69c-6.09,5.55-11.86,11.59-17.76,17.56a217.5,217.5,0,0,1-18.55,17.28c-6.64,5.3-14,10.13-22.56,12.55a41.76,41.76,0,0,1-13.25,1.61A43.1,43.1,0,0,1,105.29,141a47.11,47.11,0,0,1-21.63-16,20.69,20.69,0,0,1-3.34-6.26,20.11,20.11,0,0,1-.84-7.46,15.43,15.43,0,0,1,.76-3.87,11.54,11.54,0,0,1,1.87-3.46,15.59,15.59,0,0,1,5.56-4.24,45.17,45.17,0,0,1,12.42-3.57A97.91,97.91,0,0,1,112.75,95a93.33,93.33,0,0,1,12.72.52A99.21,99.21,0,0,1,138,97.83a108.59,108.59,0,0,1,12.21,4,110.75,110.75,0,0,1,11.68,5.48,142,142,0,0,1,21.34,14.49c6.69,5.36,13,11.08,19.16,16.65s12.29,11,18.63,15.58a97.19,97.19,0,0,0,9.71,6.24,68.45,68.45,0,0,0,10.18,4.58,60.41,60.41,0,0,0,10.69,2.69l1.38.2c.43.06.86.13,1.3.17.87.1,1.75.2,2.64.27,1.78.16,3.59.29,5.44.36a104.12,104.12,0,0,0,11.42-.11,54.62,54.62,0,0,0,11.79-2,30.41,30.41,0,0,0,10.72-5.56,18.32,18.32,0,0,0,3.93-4.54,11.33,11.33,0,0,0,1.66-5.6,13.09,13.09,0,0,0-1.42-5.66,19.65,19.65,0,0,0-3.43-4.83,31.68,31.68,0,0,0-9.72-6.71,55.18,55.18,0,0,0-10.81-3.67,88.81,88.81,0,0,0-10.17-1.86,71.76,71.76,0,0,0-9.32-.54,76,76,0,0,0-10,.66,59.63,59.63,0,0,0-11.26,2.49,51.52,51.52,0,0,0-11.21,5.09,53.17,53.17,0,0,0-9.72,7.71c-2.91,3-5.69,6.05-8.38,9.22-10.81,12.71-19.94,26.75-30,40.66a200,200,0,0,1-16.59,20.31,92.31,92.31,0,0,1-21.83,17.29,67.21,67.21,0,0,1-13.79,5.74A60.11,60.11,0,0,1,109,238.91a57.36,57.36,0,0,1-7.76-.33,45.57,45.57,0,0,1-7.49-1.5,48.5,48.5,0,0,1-13.45-6.26,62,62,0,0,1-11-9.46,86.71,86.71,0,0,1-8.68-11.11,51.89,51.89,0,0,1-6.23-12.32,18.72,18.72,0,0,1-1-7,14.44,14.44,0,0,1,2.29-6.65,33.05,33.05,0,0,1,9.34-9.05A81.28,81.28,0,0,1,76.16,169a115.45,115.45,0,0,1,24-8.18,101.16,101.16,0,0,1,25.49-2.4c4.27.15,8.56.4,12.83,1s8.52,1.34,12.74,2.33a126.13,126.13,0,0,1,24.58,8.7,169.21,169.21,0,0,1,22.57,13c14.34,9.64,27.33,20.56,40.48,29.9a176,176,0,0,0,19.95,12.52,107.76,107.76,0,0,0,20.81,8.5,103.39,103.39,0,0,0,21.9,3.77c1.88.1,3.77.22,5.52.22s3.58,0,5.4-.09c3.64-.13,7.33-.39,11.06-.72A158.13,158.13,0,0,0,346.18,234c7.5-1.86,15-4.69,20.9-9.59a22.15,22.15,0,0,0,6.71-8.86,19.12,19.12,0,0,0,.54-11.24,30.61,30.61,0,0,0-5.15-10.83,42.12,42.12,0,0,0-8.6-8.63,43.08,43.08,0,0,0-22.12-8.71c-7.93-.76-15.92.51-23.59,2.75a155.53,155.53,0,0,0-22.48,8.88c-1.84.87-3.67,1.75-5.49,2.66l-2.73,1.38c-.9.49-1.89.76-2.83,1.16l-5.68,2.27L270,197.65a333,333,0,0,0-43.41,22.69,405.76,405.76,0,0,0-40.12,28.74c-12.94,10.36-25.46,21.43-38.63,32.09-6.59,5.31-13.42,10.45-20.61,15.18a133.11,133.11,0,0,1-22.94,12.19A103.35,103.35,0,0,1,79,315.31a126.16,126.16,0,0,1-13,1c-4.34.13-8.66.14-13,.06s-8.7-.25-13.13-.7a62.93,62.93,0,0,1-13.58-2.74A27.8,27.8,0,0,1,19,309.31a14.74,14.74,0,0,1-3.71-3.79,13.66,13.66,0,0,1-1.47-2.91,12.87,12.87,0,0,1-.73-3.46,14.33,14.33,0,0,1,1-6A20.11,20.11,0,0,1,16.31,289a35,35,0,0,1,5.14-5.78,77.2,77.2,0,0,1,11-8.18c3.74-2.35,7.54-4.47,11.39-6.43a217.84,217.84,0,0,1,23.61-10.21,231.38,231.38,0,0,1,24.45-7.48c4.14-1,8.32-1.86,12.53-2.62,4.14-1,8.35-2,12.59-2.67a192.22,192.22,0,0,1,51.5-1.13,281.88,281.88,0,0,1,50.71,10.22,353.62,353.62,0,0,1,94.2,44,323.2,323.2,0,0,1,41.66,32.71q9.79,9.12,18.79,19.24a256.5,256.5,0,0,1,17,21.34,205.69,205.69,0,0,1,26.07,49.49,161.89,161.89,0,0,1,9.67,57.5A149.76,149.76,0,0,1,423,508.67a157,157,0,0,1-9.06,27.81,181.13,181.13,0,0,1-30.51,47.86,203.16,203.16,0,0,1-42.34,36.27,210.94,210.94,0,0,1-49.93,23.58,198.58,198.58,0,0,1-107.78,4.1,229.62,229.62,0,0,1-50.33-18.37,216.08,216.08,0,0,1-44.73-29.77,169.17,169.17,0,0,1-35.38-41.8,129.75,129.75,0,0,1-6.49-12.51,121.42,121.42,0,0,1-5.17-13.31,108.66,108.66,0,0,1-5.16-28.6,101.08,101.08,0,0,1,.52-14.76,109.64,109.64,0,0,1,2.62-14.3A124.26,124.26,0,0,1,49.32,448.4a131.55,131.55,0,0,1,35.16-43.1,114.44,114.44,0,0,1,24.09-14.67,103.42,103.42,0,0,1,55.24-8.24,119.94,119.94,0,0,1,26.69,6.5,135.61,135.61,0,0,1,45.63,28.18,117.34,117.34,0,0,1,17.46,20.54,84.48,84.48,0,0,1,11.43,25,66.53,66.53,0,0,1,1.39,6.91,59.8,59.8,0,0,1,.58,7.09,52.59,52.59,0,0,1-1.66,14.21,53.55,53.55,0,0,1-14,24.32,63.5,63.5,0,0,1-10.74,8.63,75.63,75.63,0,0,1-12,6.3,91.94,91.94,0,0,1-25.77,6.52,85.77,85.77,0,0,1-13.32.37c-2.23-.1-4.51-.35-6.73-.62s-4.48-.57-6.72-.95a114.1,114.1,0,0,1-13.65-3,54.31,54.31,0,0,1-13.78-6A38.05,38.05,0,0,1,137,515.11a36.77,36.77,0,0,1-5.71-15.65,25.74,25.74,0,0,1,2.5-15.52,22.58,22.58,0,0,1,4.74-6.34c.46-.48,1.08-.91,1.6-1.35a18.17,18.17,0,0,1,1.7-1.25c.64-.39,1.26-.77,1.92-1.13S145.2,473.21,145.93,472.9Z" transform="translate(-13.1 -55.46)"/><text class="cls-2" transform="translate(408.95 528.85)">ourney</text><text class="cls-3" transform="translate(1727.62 514.1)">DIGITAL</text></svg>