<?xml version="1.0" encoding="utf-8"?>
<!-- Generator: Adobe Illustrator 24.1.2, SVG Export Plug-In . SVG Version: 6.00 Build 0)  -->
<svg version="1.1" id="Layer_1" xmlns="http://www.w3.org/2000/svg" xmlns:xlink="http://www.w3.org/1999/xlink" x="0px" y="0px"
	 viewBox="0 0 2308 695.3" style="enable-background:new 0 0 2308 695.3;" xml:space="preserve">
<style type="text/css">
	.st0{fill:none;}
	.st1{font-family:'OpenSans-Light';}
	.st2{font-size:446px;}
	.st3{letter-spacing:-12;}
	.st4{font-family:'OpenSans-Bold';}
	.st5{font-size:120px;}
	.st6{letter-spacing:-1;}
</style>
<g>
	<path d="M145.9,472.9l1.3,2c0.3,0.6,0.7,1.3,1,1.9l1.7,3.5c1,2.2,1.9,4.2,2.5,6c1.4,3.7,2.1,6.7,2.7,9.5c0.6,2.8,1.3,5.4,2.3,8
		c1,2.6,2.2,5.3,4.1,8.1c1.8,2.7,4.2,5.4,7.2,7.7c2.9,2.3,6.3,4.2,10,5.4c1.8,0.6,3.7,1.1,5.6,1.4c1.9,0.3,3.8,0.4,5.8,0.5
		c3.9,0.1,7.8-0.1,11.7-0.6c7.8-1,15.5-3.1,22.6-6.3c7.1-3.2,13.5-7.6,18.6-13.1c2.5-2.7,4.7-5.7,6.3-9c1.7-3.2,2.9-6.6,3.6-10.2
		c0.7-3.6,1-7.1,0.7-10.7c-0.1-1.8-0.4-3.6-0.7-5.4c-0.4-1.8-0.8-3.6-1.4-5.3c-2.2-7.1-5.9-13.8-10.5-19.9
		c-4.6-6.2-10.1-11.7-16.1-16.7c-12-9.9-26-17.4-40.7-21.7c-14.7-4.3-30-5.3-44.3-2.3c-14.3,3-27.4,10.1-38.5,19.8
		c-11,9.7-20,22-26.2,35.4c-3.1,6.7-5.5,13.6-7,20.6c-0.8,3.5-1.3,7-1.6,10.4c-0.2,3.4-0.3,6.9-0.1,10.3c0.5,6.9,1.9,13.8,4.1,20.6
		c2.2,6.8,5.3,13.4,9,19.8c7.4,12.8,17.3,24.6,28.6,35c22.7,20.8,51.3,36.1,81.6,43c15.1,3.4,30.6,4.7,45.8,3.5
		c15.2-1.2,30.1-5.1,43.9-11.3c13.8-6.2,26.5-14.6,37.8-24.6c11.3-9.9,21.2-21.2,29.7-33.3c8.4-12.1,15.6-24.9,20.9-38
		c2.7-6.6,4.9-13.2,6.5-19.8c1.6-6.6,2.7-13.2,3.1-20c0.8-13.5-0.9-27.5-4.8-41.3c-3.9-13.8-10-27.5-17.7-40.6
		c-3.8-6.6-8-13-12.6-19.2c-4.5-6.3-9.4-12.4-14.5-18.3c-10.2-11.9-21.6-23.1-33.7-33.5c-12.1-10.4-25.1-20-38.7-28.7
		c-13.6-8.7-27.9-16.4-42.8-22.9c-14.9-6.5-30.3-11.8-46.2-15.3c-15.9-3.5-32.2-5.3-48.5-4.2c-4.1,0.3-8.1,0.7-12.2,1.4
		c-4,0.9-7.9,2.1-11.8,3.4c-7.8,2.6-15.5,5.6-22.9,9c-7.5,3.4-14.7,7.2-21.7,11.4c-3.5,2.1-6.8,4.3-10,6.7c-3.2,2.4-6.2,4.9-8.6,7.5
		c-1.2,1.3-2.3,2.6-2.9,3.8c-0.3,0.6-0.5,1.1-0.6,1.4c-0.1,0.3,0,0.4,0,0.2c0-0.1,0-0.3,0-0.4c0-0.1,0-0.2,0-0.1
		c0.1,0,0.3,0.3,0.7,0.7c0.8,0.8,2.1,1.6,3.7,2.4c3.1,1.6,6.8,2.9,10.6,4c3.8,1.1,7.8,1.9,11.8,2.5c4,0.5,8.1,0.8,12.1,0.7
		c4-0.1,8-0.5,12-1c7.9-1.2,15.6-3.4,23-6.5c14.7-6.3,27.9-16.2,40.4-27c6.3-5.4,12.4-11,18.6-16.7c6.2-5.6,12.4-11.3,18.8-16.9
		c12.7-11.2,26-21.8,40.1-31.5c7.1-4.8,14.3-9.4,21.7-13.6c7.4-4.3,15-8.2,22.8-11.9l5.8-2.7l5.9-2.6c1-0.4,1.9-0.9,3-1.2l3.1-0.9
		c2.1-0.6,4.2-1.2,6.3-1.7c8.4-2.2,17-3.8,25.8-4.5c8.8-0.7,17.7-0.4,26.3,1.7c2.1,0.5,4.2,1.2,6.3,1.9c2.1,0.8,4.1,1.7,6,2.7
		c3.9,2,7.4,4.5,10.7,7.4c3.2,2.8,6.2,6,8.7,9.4c2.6,3.4,4.8,7.2,6.3,11.4c1.5,4.1,2.1,8.9,1.2,13.5c-0.9,4.6-3.1,8.9-5.7,12.7
		c-2.7,3.8-5.8,7.2-9.2,10.3c-3.4,3.1-7,6-10.8,8.6c-7.6,5.2-16.1,9.2-25.1,11.6c-4.5,1.2-9.1,2.1-13.8,2.4
		c-2.4,0.2-4.7,0.3-7.1,0.3c-2.4,0-4.7-0.2-7-0.3c-9.2-0.7-18.5-2.5-27.3-5.4c-8.9-2.9-17.2-7.1-24.9-11.9
		c-7.7-4.9-14.7-10.4-21.2-16.2c-13-11.5-24.2-23.9-36.4-34.6c-6.1-5.4-12.5-10.3-19.2-14.7c-6.8-4.3-14-7.9-21.7-10.6
		c-7.6-2.7-15.6-4.5-23.8-5.3c-8.1-1-16.3-0.7-24.5,0.5c-4.1,0.6-8.1,1.4-12.1,2.4c-4,1-7.9,2.4-11.7,4c-3.8,1.7-7.4,3.7-10.7,6.1
		c-3.3,2.4-6.2,5.4-8,8.8c-0.8,1.7-1.3,3.5-1.2,5.3c0.1,1.8,0.7,3.5,1.6,5.2c1.8,3.3,4.8,6,8.1,8.1c3.3,2.1,7,3.6,10.7,4.7
		c3.7,1.1,7.5,1.8,11.1,2.4c3.6,0.6,7.1,1,10.4,1.4c1.7,0.2,3.3,0.3,4.9,0.5c1.6,0.1,3.2,0.3,4.8,0.2c6.3,0,12.7-1.3,19.3-3.8
		c6.6-2.5,13.2-6.2,19.8-10.5c6.6-4.3,13.1-9.3,19.4-14.6c6.4-5.3,12.5-11,18.5-16.8c6-5.8,11.9-11.9,17.8-17.9c3-3,5.9-6,8.9-8.9
		c3-3,5.8-6.1,8.7-9.4c2.8-3.3,5.7-6.7,8.8-10c1.6-1.7,3.3-3.3,5.1-4.8c1.8-1.6,3.7-3,5.9-4.3c4.2-2.6,9.1-4.5,14.3-5.2
		c5.2-0.8,10.7-0.3,15.6,1.2c4.9,1.5,9.4,3.9,13.3,6.9c1.9,1.5,3.7,3.2,5.4,4.9c1.6,1.8,3.2,3.6,4.6,5.5c2.8,3.8,5.1,7.8,6.9,12
		c0.9,2.1,1.6,4.2,2.2,6.4c0.5,2.2,0.8,4.4,0.6,6.6c-0.2,2.2-1,4.4-2,6.3c-1,1.9-2.3,3.7-3.8,5.3c-2.8,3.3-6.1,6.2-9.7,9
		c-7,5.4-15.4,10-24.7,11.6c-2.3,0.4-4.7,0.6-7.1,0.6c-1.2,0-2.4,0-3.6-0.2c-0.6,0-1.2-0.1-1.8-0.2l-1.7-0.3
		c-2.3-0.4-4.6-0.8-6.9-1.4c-2.3-0.6-4.5-1.3-6.7-2.1c-8.8-3.3-16.7-8.3-23.5-14.1c-6.8-5.7-12.7-12-18.3-18.3
		c-5.6-6.3-11-12.6-16.7-18.5c-5.7-5.9-11.8-11.3-18.4-16c-6.7-4.6-14-8.5-21.7-11.1c-3.9-1.3-7.9-2.4-11.9-3.2
		c-4-0.7-8.2-1.1-12.3-1.2c-4.1,0-8.3,0.3-12.3,1.1c-4,0.8-8,2.1-11.4,4.1c-1.6,1-3.1,2.3-4,3.7c-0.4,0.7-0.6,1.5-0.6,2.3
		c0,0.8,0.2,1.6,0.5,2.4c0.7,1.6,1.8,3,2.8,4.5c1.1,1.4,2.1,2.9,3.2,4.5c2.2,3,4.8,5.8,7.7,8.4c2.9,2.5,6,4.9,9.4,6.7
		c3.4,1.8,7.1,3.3,10.9,3.8c3.8,0.6,7.8,0.3,11.6-0.7c7.7-2.1,14.6-6.5,21-11.7c6.4-5.2,12.2-11.1,17.9-17.1
		c5.7-6,11.4-12.3,17.5-18.2c3.1-2.9,6.3-5.8,9.7-8.4c3.5-2.6,7.3-5,11.6-6.6c4.3-1.6,9.2-2.4,14-1.5c4.8,0.8,9.1,3,12.7,5.8
		c3.7,2.8,6.8,6.3,9.1,10.5c1.1,2.1,2.1,4.5,2.3,7.4c0.1,1.4,0,3.1-0.8,4.8c-0.8,1.6-1.9,2.8-3,3.7c-2.3,1.8-4.7,2.6-7,3.2
		c-2.3,0.6-4.6,1-6.8,1.2c-4.5,0.4-8.9,0.2-13.3-0.4c-4.4-0.6-8.7-1.6-12.9-3.2c-4.2-1.6-8.2-3.7-11.9-6.3
		c-7.3-5.1-13.3-11.9-17.5-19.7c-2-3.9-3.6-8.2-4.2-12.7c-0.6-4.4-0.2-9.3,2.1-13.3l2.4,1.1c-1.3,3.7-1.1,7.6-0.1,11.3
		c1,3.7,2.7,7.3,4.8,10.6c4.2,6.6,10,12.4,16.5,16.7c3.3,2.2,6.7,3.9,10.4,5.2c3.7,1.3,7.5,2.2,11.4,2.8c3.9,0.5,7.9,0.7,11.7,0.4
		c1.9-0.2,3.8-0.4,5.5-0.9c1.7-0.4,3.4-1.1,4.4-1.9c0.5-0.4,0.8-0.8,0.9-1c0.1-0.2,0.2-0.7,0.2-1.4c0-1.3-0.6-3-1.4-4.5
		c-1.6-3.2-4.1-6.1-7-8.5c-2.9-2.4-6.2-4.1-9.7-4.8c-3.5-0.7-7.2-0.4-10.7,0.9c-3.6,1.2-7,3.2-10.3,5.5c-3.3,2.3-6.4,4.9-9.5,7.7
		c-6.1,5.5-11.9,11.6-17.8,17.6c-5.9,6-11.9,11.9-18.6,17.3c-6.6,5.3-14,10.1-22.6,12.6c-4.3,1.2-8.7,1.8-13.2,1.6
		c-4.5-0.2-9-1.1-13.2-2.7c-8.5-3.1-16.1-8.6-21.6-16c-1.4-1.9-2.6-3.9-3.3-6.3c-0.7-2.3-1-4.9-0.8-7.5c0.1-1.3,0.3-2.6,0.8-3.9
		c0.4-1.3,1.1-2.5,1.9-3.5c1.6-2,3.6-3.3,5.6-4.2c4-1.9,8.2-2.9,12.4-3.6c4.2-0.7,8.4-1,12.7-1.1c4.2-0.1,8.5,0.1,12.7,0.5
		c4.3,0.5,8.4,1.3,12.6,2.4c4.1,1.1,8.2,2.4,12.2,4c4,1.6,7.9,3.4,11.7,5.5c7.6,4.1,14.7,9.1,21.3,14.5c6.7,5.4,13,11.1,19.2,16.6
		c6.2,5.6,12.3,11,18.6,15.6c3.2,2.3,6.4,4.4,9.7,6.2c3.3,1.8,6.7,3.4,10.2,4.6c3.5,1.2,7,2.2,10.7,2.7l1.4,0.2
		c0.4,0.1,0.9,0.1,1.3,0.2c0.9,0.1,1.8,0.2,2.6,0.3c1.8,0.2,3.6,0.3,5.4,0.4c3.7,0.1,7.5,0.2,11.4-0.1c3.9-0.3,7.9-0.9,11.8-2
		c3.9-1.2,7.6-2.9,10.7-5.6c1.5-1.3,2.9-2.8,3.9-4.5c1-1.7,1.6-3.7,1.7-5.6c0-2-0.5-3.9-1.4-5.7c-0.9-1.8-2.1-3.4-3.4-4.8
		c-2.8-2.9-6.2-5.1-9.7-6.7c-3.5-1.7-7.3-2.8-10.8-3.7c-3.6-0.9-7-1.5-10.2-1.9c-3.2-0.4-6.2-0.5-9.3-0.5c-3.1,0-6.4,0.2-10,0.7
		c-3.6,0.5-7.4,1.2-11.3,2.5c-3.9,1.2-7.7,2.9-11.2,5.1c-3.5,2.2-6.8,4.8-9.7,7.7c-2.9,3-5.7,6-8.4,9.2
		c-10.8,12.7-19.9,26.8-30,40.7c-5.1,6.9-10.4,13.8-16.6,20.3c-6.2,6.5-13.3,12.6-21.8,17.3c-4.3,2.3-8.9,4.3-13.8,5.7
		c-4.9,1.4-10.1,2.2-15.3,2.3c-2.6,0-5.2,0-7.8-0.3c-2.6-0.3-5.1-0.8-7.5-1.5c-4.9-1.4-9.4-3.6-13.5-6.3c-4.1-2.7-7.7-6-11-9.5
		c-3.2-3.5-6.1-7.2-8.7-11.1c-2.5-3.9-4.8-7.9-6.2-12.3c-0.7-2.2-1.2-4.6-1-7c0.2-2.5,1.1-4.7,2.3-6.6c2.5-3.8,5.9-6.6,9.3-9.1
		c3.5-2.4,7.3-4.4,11.1-6.2c7.7-3.6,15.7-6.3,24-8.2c8.3-1.8,16.9-2.7,25.5-2.4c4.3,0.2,8.6,0.4,12.8,1c4.3,0.6,8.5,1.3,12.7,2.3
		c8.4,2,16.7,5,24.6,8.7c7.9,3.7,15.4,8.2,22.6,13c14.3,9.6,27.3,20.6,40.5,29.9c6.6,4.7,13.2,9,20,12.5c6.8,3.6,13.7,6.5,20.8,8.5
		c7.1,2.1,14.4,3.3,21.9,3.8c1.9,0.1,3.8,0.2,5.5,0.2c1.8,0,3.6,0,5.4-0.1c3.6-0.1,7.3-0.4,11.1-0.7c7.5-0.7,15.1-1.7,22.7-3.5
		c7.5-1.9,15-4.7,20.9-9.6c2.9-2.4,5.4-5.4,6.7-8.9c1.3-3.4,1.5-7.4,0.5-11.2c-0.9-3.8-2.8-7.5-5.2-10.8c-2.4-3.3-5.3-6.2-8.6-8.6
		c-6.5-4.9-14.2-8-22.1-8.7c-7.9-0.8-15.9,0.5-23.6,2.7c-7.7,2.3-15.1,5.4-22.5,8.9c-1.8,0.9-3.7,1.7-5.5,2.7l-2.7,1.4
		c-0.9,0.5-1.9,0.8-2.8,1.2l-5.7,2.3l-5.6,2.4c-15,6.5-29.5,14.1-43.4,22.7c-13.9,8.6-27.2,18.4-40.1,28.7
		c-12.9,10.4-25.5,21.4-38.6,32.1c-6.6,5.3-13.4,10.5-20.6,15.2c-7.2,4.7-14.8,8.9-22.9,12.2c-8.1,3.3-16.6,5.6-25.3,6.8
		c-4.3,0.6-8.7,0.9-13,1c-4.3,0.1-8.7,0.1-13,0.1c-4.3-0.1-8.7-0.2-13.1-0.7c-4.4-0.5-8.9-1.2-13.6-2.7c-2.3-0.8-4.7-1.8-7.3-3.6
		c-1.3-0.9-2.6-2.1-3.7-3.8c-0.6-0.8-1.1-1.8-1.5-2.9c-0.4-1.1-0.6-2.3-0.7-3.5c-0.1-2.3,0.3-4.4,1-6c0.6-1.6,1.4-3,2.2-4.2
		c1.6-2.3,3.4-4.1,5.1-5.8c3.5-3.2,7.2-5.8,11-8.2c3.7-2.4,7.5-4.5,11.4-6.4c7.7-3.9,15.6-7.3,23.6-10.2c8-2.9,16.2-5.5,24.5-7.5
		c4.1-1,8.3-1.9,12.5-2.6c4.1-1,8.4-2,12.6-2.7c17-2.8,34.4-2.9,51.5-1.1c17.2,1.7,34.1,5.3,50.7,10.2c33.2,9.8,64.9,24.8,94.2,44.1
		c14.6,9.7,28.6,20.6,41.7,32.7c6.5,6.1,12.8,12.5,18.8,19.2c6,6.8,11.6,13.9,17,21.3c10.6,15,19.6,31.5,26.1,49.5
		c6.4,18,10.1,37.6,9.7,57.5c-0.2,9.9-1.4,20-3.5,29.6c-2.2,9.7-5.2,19-9.1,27.8c-7.6,17.7-18.1,33.8-30.5,47.9
		c-12.4,14.1-26.7,26.2-42.3,36.3c-15.6,10-32.4,18-49.9,23.6c-17.5,5.6-35.7,8.8-53.9,9.5c-18.3,0.7-36.4-1.3-53.8-5.4
		c-17.5-4.1-34.4-10.4-50.3-18.4c-16-8-31.1-17.9-44.7-29.8c-13.6-11.8-25.9-25.7-35.4-41.8c-2.4-4-4.5-8.2-6.5-12.5
		c-1.9-4.3-3.7-8.7-5.2-13.3c-2.9-9.1-4.8-18.8-5.2-28.6c-0.2-4.9,0-9.9,0.5-14.8c0.6-4.9,1.5-9.6,2.6-14.3
		c2.3-9.3,5.8-18.1,10.1-26.5c8.5-16.6,20.4-31.4,35.2-43.1c7.4-5.8,15.4-10.8,24.1-14.7c8.6-3.9,17.8-6.6,27.2-7.9
		c9.4-1.4,18.9-1.4,28-0.3c9.2,1.1,18.2,3.4,26.7,6.5c8.5,3.1,16.7,7.1,24.3,11.9c7.6,4.7,14.8,10.2,21.3,16.3
		c6.5,6.1,12.4,13,17.5,20.5c5,7.6,9.1,15.9,11.4,25c0.6,2.3,1,4.6,1.4,6.9c0.3,2.3,0.5,4.7,0.6,7.1c0.1,4.8-0.4,9.6-1.7,14.2
		c-2.4,9.3-7.4,17.7-14,24.3c-3.3,3.3-6.9,6.2-10.7,8.6c-3.8,2.5-7.8,4.6-12,6.3c-8.3,3.5-17,5.6-25.8,6.5
		c-4.4,0.5-8.9,0.6-13.3,0.4c-2.2-0.1-4.5-0.4-6.7-0.6c-2.2-0.3-4.5-0.6-6.7-0.9c-4.5-0.7-9-1.6-13.6-3c-4.6-1.3-9.3-3.2-13.8-6
		c-4.4-2.8-8.6-6.6-11.7-11.3c-3.1-4.7-5.1-10.2-5.7-15.6c-0.8-5.4,0.1-10.9,2.5-15.5c1.2-2.3,2.8-4.5,4.7-6.3
		c0.5-0.5,1.1-0.9,1.6-1.3c0.6-0.4,1.1-0.9,1.7-1.3c0.6-0.4,1.3-0.8,1.9-1.1C144.5,473.5,145.2,473.2,145.9,472.9z"/>
</g>
<rect x="422.1" y="245.4" class="st0" width="1420.5" height="412.9"/>
<text transform="matrix(1 0 0 1 422.053 584.309)" class="st1 st2 st3">ourney</text>
<rect x="1740.7" y="478.4" class="st0" width="490.1" height="108.8"/>
<text transform="matrix(1 0 0 1 1740.7139 569.5566)" class="st4 st5 st6">DIGITAL</text>
</svg>
